<?xml version="1.0" encoding="UTF-8"?>
<svg id="_图层_1" data-name="图层_1" xmlns="http://www.w3.org/2000/svg" version="1.1" viewBox="0 0 68.38 20.92">
  <!-- Generator: Adobe Illustrator 30.2.1, SVG Export Plug-In . SVG Version: 2.1.1 Build 1)  -->
  <defs>
    <style>
      .st0 {
        fill: #fb7701;
      }
    </style>
  </defs>
  <path class="st0" d="M37.02,0c.38,0,.73.18.95.49l4.38,6.59L46.75.48c.21-.3.57-.48.95-.48h1.19c.92,0,1.67.75,1.67,1.67v13.14c0,.92-.75,1.67-1.67,1.67s-1.67-.75-1.67-1.67V5.4l-3.68,5.19c-.57.81-1.77.81-2.34,0l-3.68-5.19v9.4c0,.92-.75,1.67-1.67,1.67s-1.67-.75-1.67-1.67V1.67C34.17.75,34.91,0,35.84,0h1.19ZM66.71,0c.92,0,1.67.75,1.67,1.67v7.88c0,4.52-2.68,6.92-7.39,6.92s-7.29-2.39-7.29-6.81V1.67C53.69.75,54.44,0,55.36,0s1.67.75,1.67,1.67v7.9c0,2.67,1.48,4.17,4.01,4.17s4.01-1.46,4.01-4.06V1.67c0-.92.75-1.67,1.67-1.67ZM12.87,0c.92,0,1.67.75,1.67,1.67s-.75,1.67-1.67,1.67h-3.93v11.45c0,.92-.75,1.67-1.67,1.67s-1.67-.75-1.67-1.67V3.34H1.67C.75,3.34,0,2.59,0,1.67S.75,0,1.67,0h11.2ZM29.44,0c.92,0,1.67.75,1.67,1.67s-.75,1.67-1.67,1.67h-8.71v3.22h7.62c.92,0,1.67.75,1.67,1.67s-.75,1.67-1.67,1.67h-7.62v3.22h8.71c.92,0,1.67.75,1.67,1.67s-.75,1.67-1.67,1.67h-10.38c-.92,0-1.67-.75-1.67-1.67V1.67C17.4.75,18.14,0,19.06,0h10.38Z"/>
</svg>